<?xml version="1.0" standalone="yes"?>

<svg version="1.1" viewBox="0.0 0.0 960.0 720.0" fill="none" stroke="none" stroke-linecap="square" stroke-miterlimit="10" xmlns="http://www.w3.org/2000/svg" xmlns:xlink="http://www.w3.org/1999/xlink"><clipPath id="p.0"><path d="m0 0l960.0 0l0 720.0l-960.0 0l0 -720.0z" clip-rule="nonzero"></path></clipPath><g clip-path="url(#p.0)"><path fill="#000000" fill-opacity="0.0" d="m0 0l960.0 0l0 720.0l-960.0 0z" fill-rule="nonzero"></path><path fill="#cfe2f3" d="m403.06824 234.95145l0 0c0 5.068405 16.435028 9.17717 36.70868 9.17717c20.27362 0 36.70865 -4.1087646 36.70865 -9.17717l0 72.51181c0 5.0684204 -16.435028 9.177155 -36.70865 9.177155c-20.273651 0 -36.70868 -4.108734 -36.70868 -9.177155z" fill-rule="nonzero"></path><path fill="#e2edf7" d="m403.06824 234.95145l0 0c0 -5.068405 16.435028 -9.17717 36.70868 -9.17717c20.27362 0 36.70865 4.1087646 36.70865 9.17717l0 0c0 5.068405 -16.435028 9.17717 -36.70865 9.17717c-20.273651 0 -36.70868 -4.1087646 -36.70868 -9.17717z" fill-rule="nonzero"></path><path fill="#000000" fill-opacity="0.0" d="m476.48557 234.95145l0 0c0 5.068405 -16.435028 9.17717 -36.70865 9.17717c-20.273651 0 -36.70868 -4.1087646 -36.70868 -9.17717l0 0c0 -5.068405 16.435028 -9.17717 36.70868 -9.17717c20.27362 0 36.70865 4.1087646 36.70865 9.17717l0 72.51181c0 5.0684204 -16.435028 9.177155 -36.70865 9.177155c-20.273651 0 -36.70868 -4.108734 -36.70868 -9.177155l0 -72.51181" fill-rule="nonzero"></path><path stroke="#000000" stroke-width="2.0" stroke-linejoin="round" stroke-linecap="butt" d="m476.48557 234.95145l0 0c0 5.068405 -16.435028 9.17717 -36.70865 9.17717c-20.273651 0 -36.70868 -4.1087646 -36.70868 -9.17717l0 0c0 -5.068405 16.435028 -9.17717 36.70868 -9.17717c20.27362 0 36.70865 4.1087646 36.70865 9.17717l0 72.51181c0 5.0684204 -16.435028 9.177155 -36.70865 9.177155c-20.273651 0 -36.70868 -4.108734 -36.70868 -9.177155l0 -72.51181" fill-rule="nonzero"></path><path fill="#000000" d="m412.9276 278.34094l1.6875 -0.140625q0.125 1.015625 0.5625 1.671875q0.4375 0.65625 1.359375 1.0625q0.9375 0.40625 2.09375 0.40625q1.03125 0 1.8125 -0.3125q0.796875 -0.3125 1.1875 -0.84375q0.390625 -0.53125 0.390625 -1.15625q0 -0.640625 -0.375 -1.109375q-0.375 -0.484375 -1.234375 -0.8125q-0.546875 -0.21875 -2.421875 -0.65625q-1.875 -0.453125 -2.625 -0.859375q-0.96875 -0.515625 -1.453125 -1.265625q-0.46875 -0.75 -0.46875 -1.6875q0 -1.03125 0.578125 -1.921875q0.59375 -0.90625 1.703125 -1.359375q1.125 -0.46875 2.5 -0.46875q1.515625 0 2.671875 0.484375q1.15625 0.484375 1.765625 1.4375q0.625 0.9375 0.671875 2.140625l-1.71875 0.125q-0.140625 -1.28125 -0.953125 -1.9375q-0.796875 -0.671875 -2.359375 -0.671875q-1.625 0 -2.375 0.609375q-0.75 0.59375 -0.75 1.4375q0 0.734375 0.53125 1.203125q0.515625 0.46875 2.703125 0.96875q2.203125 0.5 3.015625 0.875q1.1875 0.546875 1.75 1.390625q0.578125 0.828125 0.578125 1.921875q0 1.09375 -0.625 2.0625q-0.625 0.953125 -1.796875 1.484375q-1.15625 0.53125 -2.609375 0.53125q-1.84375 0 -3.09375 -0.53125q-1.25 -0.546875 -1.96875 -1.625q-0.703125 -1.078125 -0.734375 -2.453125zm23.349823 2.921875q1.265625 0.859375 2.3125 1.265625l-0.53125 1.25q-1.453125 -0.53125 -2.921875 -1.671875q-1.5 0.84375 -3.328125 0.84375q-1.84375 0 -3.359375 -0.890625q-1.5 -0.890625 -2.3125 -2.5q-0.8125 -1.625 -0.8125 -3.640625q0 -2.015625 0.8125 -3.65625q0.828125 -1.65625 2.328125 -2.515625q1.515625 -0.875 3.375 -0.875q1.890625 0 3.390625 0.90625q1.515625 0.890625 2.3125 2.5q0.796875 1.609375 0.796875 3.625q0 1.6875 -0.515625 3.03125q-0.515625 1.328125 -1.546875 2.328125zm-3.953125 -2.296875q1.5625 0.421875 2.5625 1.296875q1.59375 -1.453125 1.59375 -4.359375q0 -1.65625 -0.5625 -2.875q-0.5625 -1.234375 -1.640625 -1.921875q-1.078125 -0.6875 -2.421875 -0.6875q-2.015625 0 -3.34375 1.390625q-1.328125 1.375 -1.328125 4.109375q0 2.65625 1.3125 4.078125q1.3125 1.40625 3.359375 1.40625q0.953125 0 1.8125 -0.359375q-0.84375 -0.546875 -1.78125 -0.78125l0.4375 -1.296875zm8.089569 3.75l0 -13.59375l1.796875 0l0 11.984375l6.703125 0l0 1.609375l-8.5 0z" fill-rule="nonzero"></path><path fill="#cfe2f3" d="m194.56955 104.3832l89.95276 0l0 48.62992l-89.95276 0z" fill-rule="nonzero"></path><path stroke="#000000" stroke-width="2.0" stroke-linejoin="round" stroke-linecap="butt" d="m194.56955 104.3832l89.95276 0l0 48.62992l-89.95276 0z" fill-rule="nonzero"></path><path fill="#cfe2f3" d="m194.56955 203.22572l89.95276 0l0 48.629913l-89.95276 0z" fill-rule="nonzero"></path><path stroke="#000000" stroke-width="2.0" stroke-linejoin="round" stroke-linecap="butt" d="m194.56955 203.22572l89.95276 0l0 48.629913l-89.95276 0z" fill-rule="nonzero"></path><path fill="#cfe2f3" d="m194.56955 302.7454l89.95276 0l0 48.629944l-89.95276 0z" fill-rule="nonzero"></path><path stroke="#000000" stroke-width="2.0" stroke-linejoin="round" stroke-linecap="butt" d="m194.56955 302.7454l89.95276 0l0 48.629944l-89.95276 0z" fill-rule="nonzero"></path><path fill="#cfe2f3" d="m194.56955 415.11023l89.95276 0l0 48.629913l-89.95276 0z" fill-rule="nonzero"></path><path stroke="#000000" stroke-width="2.0" stroke-linejoin="round" stroke-linecap="butt" d="m194.56955 415.11023l89.95276 0l0 48.629913l-89.95276 0z" fill-rule="nonzero"></path><path fill="#cfe2f3" d="m394.80054 104.3832l89.95276 0l0 48.62992l-89.95276 0z" fill-rule="nonzero"></path><path stroke="#000000" stroke-width="2.0" stroke-linejoin="round" stroke-linecap="butt" d="m394.80054 104.3832l89.95276 0l0 48.62992l-89.95276 0z" fill-rule="nonzero"></path><path fill="#cfe2f3" d="m394.80054 415.11023l89.95276 0l0 48.629913l-89.95276 0z" fill-rule="nonzero"></path><path stroke="#000000" stroke-width="2.0" stroke-linejoin="round" stroke-linecap="butt" d="m394.80054 415.11023l89.95276 0l0 48.629913l-89.95276 0z" fill-rule="nonzero"></path><path fill="#cfe2f3" d="m582.4252 104.3832l89.95276 0l0 48.62992l-89.95276 0z" fill-rule="nonzero"></path><path stroke="#000000" stroke-width="2.0" stroke-linejoin="round" stroke-linecap="butt" d="m582.4252 104.3832l89.95276 0l0 48.62992l-89.95276 0z" fill-rule="nonzero"></path><path fill="#cfe2f3" d="m582.4252 203.22572l89.95276 0l0 48.629913l-89.95276 0z" fill-rule="nonzero"></path><path stroke="#000000" stroke-width="2.0" stroke-linejoin="round" stroke-linecap="butt" d="m582.4252 203.22572l89.95276 0l0 48.629913l-89.95276 0z" fill-rule="nonzero"></path><path fill="#cfe2f3" d="m582.4252 302.7454l89.95276 0l0 48.629944l-89.95276 0z" fill-rule="nonzero"></path><path stroke="#000000" stroke-width="2.0" stroke-linejoin="round" stroke-linecap="butt" d="m582.4252 302.7454l89.95276 0l0 48.629944l-89.95276 0z" fill-rule="nonzero"></path><path fill="#cfe2f3" d="m582.4252 415.11023l89.95276 0l0 48.629913l-89.95276 0z" fill-rule="nonzero"></path><path stroke="#000000" stroke-width="2.0" stroke-linejoin="round" stroke-linecap="butt" d="m582.4252 415.11023l89.95276 0l0 48.629913l-89.95276 0z" fill-rule="nonzero"></path><path fill="#000000" fill-opacity="0.0" d="m439.77692 153.01312l0 72.755905" fill-rule="nonzero"></path><path stroke="#000000" stroke-width="2.0" stroke-linejoin="round" stroke-linecap="butt" d="m439.77692 153.01312l0 72.755905" fill-rule="nonzero"></path><path fill="#000000" fill-opacity="0.0" d="m582.4252 227.54068l-105.95273 43.653534" fill-rule="nonzero"></path><path stroke="#000000" stroke-width="2.0" stroke-linejoin="round" stroke-linecap="butt" d="m582.4252 227.54068l-105.95273 43.653534" fill-rule="nonzero"></path><path fill="#000000" fill-opacity="0.0" d="m582.4252 327.06036l-105.95273 -55.84253" fill-rule="nonzero"></path><path stroke="#000000" stroke-width="2.0" stroke-linejoin="round" stroke-linecap="butt" d="m582.4252 327.06036l-105.95273 -55.84253" fill-rule="nonzero"></path><path fill="#000000" fill-opacity="0.0" d="m582.4252 439.4252l-142.64563 -122.77167" fill-rule="nonzero"></path><path stroke="#000000" stroke-width="2.0" stroke-linejoin="round" stroke-linecap="butt" d="m582.4252 439.4252l-142.64563 -122.77167" fill-rule="nonzero"></path><path fill="#000000" fill-opacity="0.0" d="m439.77692 415.11023l0 -98.456696" fill-rule="nonzero"></path><path stroke="#000000" stroke-width="2.0" stroke-linejoin="round" stroke-linecap="butt" d="m439.77692 415.11023l0 -98.456696" fill-rule="nonzero"></path><path fill="#000000" fill-opacity="0.0" d="m284.5223 439.4252l155.24411 -122.77167" fill-rule="nonzero"></path><path stroke="#000000" stroke-width="2.0" stroke-linejoin="round" stroke-linecap="butt" d="m284.5223 439.4252l155.24411 -122.77167" fill-rule="nonzero"></path><path fill="#000000" fill-opacity="0.0" d="m284.5223 327.06036l118.55118 -55.84253" fill-rule="nonzero"></path><path stroke="#000000" stroke-width="2.0" stroke-linejoin="round" stroke-linecap="butt" d="m284.5223 327.06036l118.55118 -55.84253" fill-rule="nonzero"></path><path fill="#000000" fill-opacity="0.0" d="m284.5223 227.54068l118.55118 43.653534" fill-rule="nonzero"></path><path stroke="#000000" stroke-width="2.0" stroke-linejoin="round" stroke-linecap="butt" d="m284.5223 227.54068l118.55118 43.653534" fill-rule="nonzero"></path><path fill="#000000" fill-opacity="0.0" d="m284.5223 128.69817l155.24411 97.07086" fill-rule="nonzero"></path><path stroke="#000000" stroke-width="2.0" stroke-linejoin="round" stroke-linecap="butt" d="m284.5223 128.69817l155.24411 97.07086" fill-rule="nonzero"></path><path fill="#000000" fill-opacity="0.0" d="m582.4252 128.69817l-142.64563 97.07086" fill-rule="nonzero"></path><path stroke="#000000" stroke-width="2.0" stroke-linejoin="round" stroke-linecap="butt" d="m582.4252 128.69817l-142.64563 97.07086" fill-rule="nonzero"></path></g></svg>

